<svg width="208" height="66" viewBox="0 0 208 66" fill="none" xmlns="http://www.w3.org/2000/svg">
<path d="M190.886 49.1024C187.93 49.1024 185.51 48.0908 183.626 46.0675C181.759 44.0225 180.825 41.2378 180.825 37.7135C180.825 34.0368 181.897 31.1651 184.041 29.0983C186.202 27.0098 189.011 25.9656 192.468 25.9656C193.989 25.9656 195.381 26.1723 196.643 26.5856C197.905 26.9772 199.028 27.5211 200.014 28.2173V26.2266C200.014 24.1164 199.46 22.5391 198.354 21.4949C197.248 20.4506 195.778 19.9285 193.946 19.9285C192.892 19.9285 191.967 20.059 191.172 20.3201C190.394 20.5594 189.65 20.8857 188.942 21.2991C188.233 21.7124 187.533 22.2128 186.841 22.8002C186.167 23.3876 185.83 23.6813 185.83 23.6813L182.174 17.8726C182.174 17.8726 182.641 17.4592 183.574 16.6325C184.507 15.8058 185.553 15.0553 186.712 14.3809C187.87 13.7064 189.123 13.1952 190.471 12.8471C191.837 12.4773 193.315 12.2923 194.905 12.2923C199.002 12.2923 202.209 13.5215 204.526 15.9799C206.842 18.4165 208 21.8538 208 26.2919V47.9602H200.247V41.2705L201.595 43.7179H200.04C199.175 45.2843 197.957 46.5788 196.383 47.6013C194.828 48.602 192.995 49.1024 190.886 49.1024ZM193.505 42.3147C195.476 42.3147 197.066 41.5098 198.276 39.8999C199.504 38.2682 200.117 36.245 200.117 33.8301V33.6017C199.357 32.9055 198.458 32.3616 197.421 31.9701C196.401 31.5785 195.32 31.3827 194.179 31.3827C192.485 31.3827 191.128 31.8722 190.108 32.8511C189.106 33.8084 188.604 35.1572 188.604 36.8976C188.604 38.6598 189.045 40.0087 189.927 40.9441C190.809 41.8579 192.001 42.3147 193.505 42.3147Z" fill="#035E8B"/>
<path d="M161.936 49.1025C158.15 49.1025 155.004 47.4382 152.497 44.1096C149.991 40.7593 148.738 36.3103 148.738 30.7627C148.738 25.2368 149.991 20.7879 152.497 17.4158C155.021 14.022 158.133 12.325 161.832 12.325C163.872 12.325 165.661 12.8689 167.2 13.9567C168.756 15.0227 169.914 16.3498 170.674 17.9379H170.882V0.152924H178.972V47.9603H171.063V42.2495L172.101 43.718H170.856C170.026 45.2844 168.833 46.5788 167.278 47.6013C165.739 48.6021 163.958 49.1025 161.936 49.1025ZM163.984 40.6505C166.128 40.6505 167.848 39.7477 169.144 37.942C170.458 36.1363 171.115 33.7432 171.115 30.7627C171.115 27.804 170.45 25.4109 169.119 23.5834C167.788 21.756 166.076 20.8423 163.984 20.8423C161.841 20.8423 160.121 21.7669 158.824 23.6161C157.528 25.4435 156.88 27.8148 156.88 30.7301C156.88 33.667 157.519 36.0601 158.798 37.9093C160.095 39.7368 161.824 40.6505 163.984 40.6505Z" fill="#035E8B"/>
<path d="M130.071 34.6915C128.553 34.6915 127.322 33.4608 127.322 31.9426V28.5969C127.322 27.0787 128.553 25.848 130.071 25.848H141.816C143.335 25.848 144.565 27.0787 144.565 28.5969V31.9426C144.565 33.4608 143.335 34.6915 141.816 34.6915H130.071Z" fill="#035E8B"/>
<path d="M115.896 47.9602V13.4671H124.038V47.9602H115.896ZM120.019 11.5521C118.723 11.5521 117.608 10.9864 116.674 9.85517C115.758 8.72389 115.3 7.34243 115.3 5.71078C115.3 4.07912 115.758 2.71942 116.674 1.63165C117.608 0.543883 118.723 0 120.019 0C121.35 0 122.448 0.543883 123.312 1.63165C124.194 2.71942 124.635 4.09 124.635 5.74341C124.635 7.35331 124.194 8.72389 123.312 9.85517C122.448 10.9864 121.35 11.5521 120.019 11.5521Z" fill="#035E8B"/>
<path d="M95.7716 49.1025C91.9858 49.1025 88.8397 47.4382 86.3331 44.1096C83.8265 40.7593 82.5732 36.3103 82.5732 30.7627C82.5732 25.2368 83.8265 20.7879 86.3331 17.4158C88.857 14.022 91.9686 12.325 95.6679 12.325C97.7077 12.325 99.4969 12.8689 101.035 13.9567C102.591 15.0227 103.749 16.3498 104.51 17.9379H104.718V0.152924H112.808V47.9603H104.899V42.2495L105.936 43.718H104.692C103.862 45.2844 102.669 46.5788 101.113 47.6013C99.5747 48.6021 97.7942 49.1025 95.7716 49.1025ZM97.8201 40.6505C99.9637 40.6505 101.684 39.7477 102.98 37.942C104.294 36.1363 104.951 33.7432 104.951 30.7627C104.951 27.804 104.285 25.4109 102.954 23.5834C101.623 21.756 99.9118 20.8423 97.8201 20.8423C95.6766 20.8423 93.9565 21.7669 92.66 23.6161C91.3635 25.4435 90.7153 27.8148 90.7153 30.7301C90.7153 33.667 91.3549 36.0601 92.6341 37.9093C93.9306 39.7368 95.6593 40.6505 97.8201 40.6505Z" fill="#035E8B"/>
<path d="M64.8226 34.6915C63.3045 34.6915 62.0737 33.4608 62.0737 31.9426V28.5969C62.0737 27.0787 63.3045 25.848 64.8226 25.848H76.5683C78.0865 25.848 79.3172 27.0787 79.3172 28.5969V31.9426C79.3172 33.4608 78.0865 34.6915 76.5683 34.6915H64.8226Z" fill="#035E8B"/>
<path d="M42.1485 49.1024C39.1925 49.1024 36.7723 48.0908 34.8881 46.0675C33.0211 44.0225 32.0876 41.2378 32.0876 37.7135C32.0876 34.0368 33.1594 31.1651 35.303 29.0983C37.4638 27.0098 40.2729 25.9656 43.7302 25.9656C45.2515 25.9656 46.643 26.1723 47.905 26.5856C49.1669 26.9772 50.2905 27.5211 51.2759 28.2173V26.2266C51.2759 24.1164 50.7227 22.5391 49.6164 21.4949C48.51 20.4506 47.0406 19.9285 45.2082 19.9285C44.1538 19.9285 43.2289 20.059 42.4337 20.3201C41.6558 20.5594 40.9125 20.8857 40.2037 21.2991C39.495 21.7124 38.7949 22.2128 38.1034 22.8002C37.4292 23.3876 37.0921 23.6813 37.0921 23.6813L33.436 17.8726C33.436 17.8726 33.9027 17.4592 34.8362 16.6325C35.7697 15.8058 36.8156 15.0553 37.9738 14.3809C39.132 13.7064 40.3853 13.1952 41.7336 12.8471C43.0993 12.4773 44.5773 12.2923 46.1677 12.2923C50.2646 12.2923 53.4713 13.5215 55.7877 15.9799C58.1041 18.4165 59.2623 21.8538 59.2623 26.2919V47.9602H51.5092V41.2705L52.8576 43.7179H51.3018C50.4375 45.2843 49.2188 46.5788 47.6457 47.6013C46.0899 48.602 44.2575 49.1024 42.1485 49.1024ZM44.7674 42.3147C46.7381 42.3147 48.3285 41.5098 49.5386 39.8999C50.7659 38.2682 51.3796 36.245 51.3796 33.8301V33.6017C50.619 32.9055 49.7201 32.3616 48.6829 31.9701C47.663 31.5785 46.5825 31.3827 45.4416 31.3827C43.7475 31.3827 42.3905 31.8722 41.3706 32.8511C40.368 33.8084 39.8667 35.1572 39.8667 36.8976C39.8667 38.6598 40.3075 40.0087 41.1891 40.9441C42.0707 41.8579 43.2635 42.3147 44.7674 42.3147Z" fill="#035E8B"/>
<path d="M13.1984 49.1025C9.41261 49.1025 6.26643 47.4382 3.75986 44.1096C1.25329 40.7593 0 36.3103 0 30.7627C0 25.2368 1.25329 20.7879 3.75986 17.4158C6.28371 14.022 9.39532 12.325 13.0947 12.325C15.1345 12.325 16.9237 12.8689 18.4622 13.9567C20.018 15.0227 21.1762 16.3498 21.9368 17.9379H22.1443V0.152924H30.2344V47.9603H22.3258V42.2495L23.363 43.718H22.1183C21.2886 45.2844 20.0958 46.5788 18.54 47.6013C17.0015 48.6021 15.2209 49.1025 13.1984 49.1025ZM15.2469 40.6505C17.3904 40.6505 19.1104 39.7477 20.4069 37.942C21.7207 36.1363 22.3776 33.7432 22.3776 30.7627C22.3776 27.804 21.7121 25.4109 20.381 23.5834C19.0499 21.756 17.3386 20.8423 15.2469 20.8423C13.1033 20.8423 11.3833 21.7669 10.0868 23.6161C8.79029 25.4435 8.14203 27.8148 8.14203 30.7301C8.14203 33.667 8.78164 36.0601 10.0609 37.9093C11.3574 39.7368 13.086 40.6505 15.2469 40.6505Z" fill="#035E8B"/>
<rect y="51.3128" width="79.7181" height="13.7445" rx="6.87225" fill="#035E8B"/>
<rect x="86.1321" y="51.3128" width="35.7357" height="13.7445" rx="6.87225" fill="#035E8B"/>
<path d="M201.127 51.3128C204.923 51.3128 207.999 54.3895 208 58.1848C208 61.9803 204.923 65.0569 201.127 65.0569H135.154C131.358 65.0568 128.282 61.9802 128.282 58.1848C128.282 54.3896 131.359 51.3129 135.154 51.3128H201.127ZM159.987 55.6634H163.491L163.518 55.7024L160.459 61.471L161.989 62.3089L165.407 55.6184C165.454 55.5217 165.477 55.4729 165.477 55.4729V54.0618H159.987V55.6634ZM145.692 54.0618V62.052H150.955V60.4505H147.406V58.6868H150.318V57.2473H147.406V55.6634H150.845V54.0618H145.692ZM151.817 62.052H153.646L154.175 60.5559H157.175L157.706 62.052H159.561L156.47 54.0618H154.914L151.817 62.052ZM166.653 62.052H168.399V58.927H171.246V57.4153H168.399V55.6907H171.588V54.0618H166.653V62.052ZM173.083 62.052H174.754V58.1458L174.705 56.8177H174.743L176.866 62.052H178.281L180.359 56.8235H180.397L180.359 58.1458V62.052H182.025V54.0618H179.984L177.611 59.9427H177.568L175.195 54.0618H173.083V62.052ZM183.967 62.052H185.632V58.096L185.583 56.9134H185.627L189.029 62.052H190.59V54.0618H188.925V57.8675L188.98 59.0999H188.942L185.731 54.0618H183.967V62.052ZM156.024 57.3089L156.691 59.1897H154.66L155.328 57.303L155.643 56.2659H155.687L156.024 57.3089Z" fill="#035E8B"/>
</svg>
