<svg width="53" height="24" viewBox="0 0 53 24" fill="none" xmlns="http://www.w3.org/2000/svg">
<path d="M12.1475 0C15.5949 1.61746e-05 18.4331 2.57974 18.8066 5.89746H18.8496V6.2832H37.1768C37.2542 6.2832 37.3297 6.29168 37.4023 6.30762C37.8075 6.21379 38.2446 6.35091 38.5342 6.72461L44.3203 14.1924C44.3624 14.2467 44.3984 14.304 44.4307 14.3623H46.0918V11.9971C43.7758 11.1756 42.0315 7.11812 41.1475 4.58301C40.7859 3.54617 41.5738 2.51374 42.6719 2.51367H51.3857C52.5016 2.51367 53.2916 3.57715 52.8975 4.62109C51.9627 7.09678 50.1799 10.9865 47.9326 11.9336V16.4199H46.0918V16.4072C46.0203 16.4147 45.9475 16.4199 45.874 16.4199H43.2578C43.2014 16.4239 43.1454 16.4237 43.0898 16.4189C42.6673 16.4137 42.3067 16.1543 42.1533 15.7861L36.665 8.49414C36.637 8.45684 36.6115 8.41775 36.5879 8.37793H18.8496V14.0049H23.168V10.1562H26.3896V8.79688H29.3213V10.1562H32.3838V14.0049H38.3467V23.3594H1.67578V14.0049H5.44531V8.37793H1.04688C0.468672 8.37776 0 7.90832 0 7.33008C0.000134022 6.75195 0.468755 6.28337 1.04688 6.2832H5.44531V5.89746H5.48828C5.86177 2.57975 8.70005 5.68503e-05 12.1475 0ZM12.1475 4.86426C11.4255 4.86435 10.8047 5.28795 10.5205 5.89746H13.7754C13.4909 5.2879 12.8695 4.86426 12.1475 4.86426Z" fill="#035E8B"/>
</svg>
